<?xml version="1.0" encoding="utf-8"?>
<!-- Generator: Adobe Illustrator 19.2.0, SVG Export Plug-In . SVG Version: 6.00 Build 0)  -->
<svg version="1.1" id="Layer_1" xmlns="http://www.w3.org/2000/svg" xmlns:xlink="http://www.w3.org/1999/xlink" x="0px" y="0px"
	 viewBox="0 0 32 32" style="enable-background:new 0 0 32 32;" xml:space="preserve">
<style type="text/css">
	.st0{fill:#FFFFFF;}
</style>
<g>
	<path class="st0" d="M16,0C7.2,0,0,7.2,0,16s7.2,16,16,16s16-7.2,16-16S24.8,0,16,0z M22.8,17.4L15,25.2c-0.7,0.7-1.9,0.7-2.6,0
		l-0.7-0.7c-0.7-0.7-0.7-1.9,0-2.6l6-6l-6-6C11,9.2,11,8,11.7,7.3l0.7-0.7c0.7-0.7,1.9-0.7,2.6,0l7.8,7.8c0.3,0.6,0.5,1.1,0.5,1.6
		C23.3,16.5,23.1,17,22.8,17.4z"/>
</g>
</svg>
