<?xml version="1.0" encoding="utf-8"?>
<!-- Generator: Adobe Illustrator 19.2.0, SVG Export Plug-In . SVG Version: 6.00 Build 0)  -->
<svg version="1.1" id="Layer_1" xmlns="http://www.w3.org/2000/svg" xmlns:xlink="http://www.w3.org/1999/xlink" x="0px" y="0px"
	 viewBox="0 0 32 32" style="enable-background:new 0 0 32 32;" xml:space="preserve">
<style type="text/css">
	.st0{fill:#FFFFFF;}
</style>
<g>
	<path class="st0" d="M16,32c8.8,0,16-7.2,16-16S24.8,0,16,0S0,7.2,0,16S7.2,32,16,32z M9.2,14.6L17,6.8c0.7-0.7,1.9-0.7,2.6,0
		l0.7,0.7c0.7,0.7,0.7,1.9,0,2.6l-6,6l6,6c0.7,0.7,0.7,1.9,0,2.6l-0.7,0.7c-0.7,0.7-1.9,0.7-2.6,0l-7.8-7.8C8.9,17,8.7,16.5,8.7,16
		S8.9,15,9.2,14.6z"/>
</g>
</svg>
